# xmcd
#
# Track frame offsets: 
#        150
#        18425
#        34192
#        50234
#        66271
#        81091
#        98528
#        114360
#        129798
#        147185
#
# Disc length: 2169 seconds
#
# Revision: 0
# Processed by: cddbd v1.5.2PL0 Copyright (c) Steve Scherf et al.
# Submitted via: ExactAudioCopy v1.0b3
#
DISCID=7e08770a
DTITLE=Ирина Дорофеева - Девушка на берегу
DYEAR=2008
DGENRE=Pop
TTITLE0=Девушка на берегу сл. С.Сашин, муз. К.Брейтбург
TTITLE1=Немного красивых слов. сл С.Сашин, муз. К.Брейтбург
TTITLE2=Маленькая зима сл. К.Кавалерян, муз. К.Брейтбург
TTITLE3=Я мало знаю о любви сл. М.Танич, муз. К.Брейтбург
TTITLE4=33 богатыря  муз. К.Брейтбург, сл. Е.Муравьёв
TTITLE5=Ангел мой сл. С. Сашин, муз. К. Брейтбург
TTITLE6=Ходили по радугам муз. К.Брейтбург — сл. С.Сашин, Э.Мельник
TTITLE7=Параллельно сл. С.Сашин, муз. К.Брейтбург
TTITLE8=Ирина Дорофеева, Руслан Алехно - Сердце земли моей. сл. Э.Мель
TTITLE8=ник, муз. К.Брейтбург
TTITLE9=Это неизбежно. сл. Е.Муравьев, муз. К. Брейтбург
EXTD=
EXTT0=
EXTT1=
EXTT2=
EXTT3=
EXTT4=
EXTT5=
EXTT6=
EXTT7=
EXTT8=
EXTT9=
PLAYORDER=
